<mxfile host="app.diagrams.net" modified="2023-05-11T05:22:38.012Z" agent="Mozilla/5.0 (Macintosh; Intel Mac OS X 10_15_7) AppleWebKit/537.36 (KHTML, like Gecko) Chrome/113.0.0.0 Safari/537.36" version="21.2.9" etag="C75FaSR9m5nanEfw3_nU" type="github">
  <diagram name="Page-1" id="eE4fXrkDYtKro0i4LNs-">
    <mxGraphModel>
      <root>
        <mxCell id="0" />
        <mxCell id="1" parent="0" />
      </root>
    </mxGraphModel>
  </diagram>
</mxfile>
